<?xml version="1.0" standalone="no"?>
<!DOCTYPE svg PUBLIC "-//W3C//DTD SVG 20010904//EN"
 "http://www.w3.org/TR/2001/REC-SVG-20010904/DTD/svg10.dtd">
<svg version="1.0"
  xmlns="http://www.w3.org/2000/svg" width="260.000000pt" height="260.000000pt" viewBox="0 0 260.000000 260.000000" preserveAspectRatio="xMidYMid meet">
  <metadata>
Created by potrace 1.14, written by Peter Selinger 2001-2017
  </metadata>
  <g transform="translate(0.000000,260.000000) scale(0.100000,-0.100000)" fill="#000000" stroke="none">
    <path d="M304 2532 c-140 -102 -231 -392 -195 -622 11 -68 26 -107 81 -210
l19 -35 -31 -115 c-30 -108 -32 -125 -32 -290 0 -157 3 -185 27 -273 43 -159
159 -379 242 -457 l25 -23 0 -203 c0 -128 4 -212 11 -227 18 -39 46 -48 144
-45 l90 3 3 110 c3 108 10 129 39 118 10 -4 13 -33 13 -119 l0 -114 120 0 120
0 0 109 c0 84 3 111 15 121 12 10 18 10 30 0 12 -10 15 -37 15 -121 l0 -109
120 0 120 0 0 114 c0 86 3 115 13 119 29 11 36 -10 39 -118 l3 -110 120 0 120
0 3 110 c3 114 10 137 37 115 12 -10 15 -35 15 -121 l0 -109 120 0 120 0 0
109 c0 86 3 111 15 121 27 22 34 -1 37 -115 l3 -110 80 -3 c93 -3 118 1 145
28 19 19 20 34 20 229 l0 209 46 54 c98 115 181 276 226 441 20 72 22 106 22
272 0 171 -2 198 -24 270 -32 107 -32 159 2 210 46 70 63 146 62 280 -1 179
-43 317 -130 436 -66 90 -168 125 -227 79 -60 -47 -104 -203 -95 -337 2 -35 3
-63 1 -63 -2 0 -33 21 -69 46 -386 263 -952 267 -1339 9 l-90 -60 -1 105 c0
117 -20 202 -60 261 -46 67 -123 79 -190 31z m492 -827 c133 -39 230 -197 241
-395 14 -261 -126 -474 -312 -474 -211 0 -363 283 -304 566 29 141 127 271
228 302 60 19 87 19 147 1z m1167 -1 c97 -33 187 -147 222 -279 8 -33 15 -99
15 -148 0 -192 -74 -342 -201 -412 -138 -75 -291 -7 -375 168 -104 217 -46
524 120 635 80 53 140 63 219 36z m-604 -1103 c28 -44 51 -82 51 -85 0 -4 -47
-6 -105 -6 -58 0 -105 2 -105 5 0 3 12 24 27 48 14 23 37 59 50 80 13 20 25
37 27 37 2 0 27 -36 55 -79z"/>
  </g>
</svg>
